<?xml version="1.0" standalone="no"?>
<!DOCTYPE svg PUBLIC "-//W3C//DTD SVG 20010904//EN"
 "http://www.w3.org/TR/2001/REC-SVG-20010904/DTD/svg10.dtd">
<svg version="1.0" xmlns="http://www.w3.org/2000/svg"
 width="129.000000pt" height="129.000000pt" viewBox="0 0 129.000000 129.000000"
 preserveAspectRatio="xMidYMid meet">
<metadata>
Created by potrace 1.14, written by Peter Selinger 2001-2017
</metadata>
<g transform="translate(0.000000,129.000000) scale(0.100000,-0.100000)"
fill="#000000" stroke="none">
<path d="M563 1272 c-89 -46 -127 -133 -98 -230 12 -39 40 -73 170 -207 132
-134 159 -158 173 -149 9 6 17 18 17 27 0 9 -64 81 -142 159 -157 159 -180
195 -163 257 35 130 204 132 245 3 13 -43 -4 -92 -50 -141 l-45 -48 21 -22 21
-22 48 52 c48 52 70 102 70 155 -1 38 -34 111 -62 135 -57 48 -144 62 -205 31z"/>
<path d="M602 1148 c-18 -22 -19 -78 -2 -78 11 0 79 71 80 83 0 12 -67 8 -78
-5z"/>
<path d="M76 952 c14 -37 38 -100 52 -139 15 -40 30 -73 34 -73 4 0 12 18 18
40 6 22 14 40 18 40 5 0 38 -31 75 -70 37 -38 71 -70 75 -70 5 0 16 8 25 18
16 17 12 22 -58 92 -41 41 -75 77 -75 80 0 3 21 12 46 19 25 8 42 17 37 21 -4
4 -44 21 -88 38 -44 16 -104 39 -132 51 l-53 21 26 -68z"/>
<path d="M1105 970 c-66 -26 -129 -51 -140 -55 -17 -6 -13 -9 24 -23 25 -10
45 -20 45 -24 1 -4 -82 -90 -183 -193 l-184 -187 22 -21 22 -22 185 188 c102
103 190 185 195 182 5 -4 9 -14 9 -24 0 -9 6 -25 13 -35 11 -16 19 -1 65 120
28 76 50 139 49 140 -1 1 -56 -20 -122 -46z"/>
<path d="M380 649 l-185 -190 -15 47 c-9 27 -19 43 -23 37 -7 -10 -64 -158
-92 -235 l-14 -37 52 20 c29 12 79 31 112 44 33 13 74 28 90 35 l30 12 -49 17
-48 17 52 54 c29 30 114 117 188 192 134 136 136 137 117 158 -10 11 -21 20
-24 20 -3 0 -89 -86 -191 -191z"/>
<path d="M463 595 c-7 -8 -13 -17 -13 -20 0 -3 66 -72 146 -153 80 -81 153
-160 161 -176 32 -62 -6 -154 -73 -176 -112 -37 -208 79 -152 183 5 10 26 36
45 58 35 38 35 40 18 60 -19 19 -19 19 -63 -23 -52 -51 -70 -83 -77 -135 -17
-134 117 -245 246 -202 67 23 128 105 129 173 0 77 -19 106 -179 269 -85 86
-159 157 -165 157 -6 -1 -17 -7 -23 -15z"/>
<path d="M908 591 c-16 -16 -14 -21 57 -91 41 -41 75 -77 75 -80 0 -4 -21 -13
-47 -21 l-48 -15 134 -53 c73 -28 137 -51 141 -49 4 2 -15 63 -43 135 -27 73
-53 130 -57 128 -5 -3 -11 -19 -15 -35 -4 -16 -11 -32 -16 -36 -5 -3 -41 26
-79 65 -38 39 -73 71 -77 70 -5 0 -16 -8 -25 -18z"/>
<path d="M641 191 c-38 -38 -40 -41 -22 -51 38 -20 81 11 81 60 0 34 -18 31
-59 -9z"/>
</g>
</svg>
